<svg xmlns="http://www.w3.org/2000/svg" viewBox="0 0 900 1200" role="img" aria-label="Model neck silhouette">
  <defs>
    <linearGradient id="bg" x1="0" y1="0" x2="1" y2="1">
      <stop offset="0%" stop-color="#0a0a0d" />
      <stop offset="100%" stop-color="#171923" />
    </linearGradient>
    <radialGradient id="glow" cx="50%" cy="28%" r="46%">
      <stop offset="0%" stop-color="#c9a962" stop-opacity="0.35" />
      <stop offset="100%" stop-color="#c9a962" stop-opacity="0" />
    </radialGradient>
  </defs>
  <rect width="900" height="1200" fill="url(#bg)" />
  <rect width="900" height="1200" fill="url(#glow)" />
  <path d="M280 1090c16-112 62-184 118-244 23-24 37-56 37-89V646h130v111c0 33 14 65 37 89 56 60 102 132 118 244H280z" fill="#23242d" />
  <ellipse cx="450" cy="422" rx="175" ry="198" fill="#2c2d36" />
  <path d="M330 390c24-64 66-102 120-102s96 38 120 102" fill="none" stroke="#3a3b46" stroke-width="10" />
  <path d="M365 675c35 28 72 42 85 42s50-14 85-42" fill="none" stroke="#3f414d" stroke-width="8" />
</svg>
